<svg xmlns="http://www.w3.org/2000/svg" xmlns:xlink="http://www.w3.org/1999/xlink" width="542" zoomAndPan="magnify" viewBox="0 0 406.5 131.999998" height="176" preserveAspectRatio="xMidYMid meet" version="1.0"><defs><g/><clipPath id="1bc4e09667"><path d="M 30.820312 43.019531 L 98.066406 43.019531 L 98.066406 102.121094 L 30.820312 102.121094 Z M 30.820312 43.019531 " clip-rule="nonzero"/></clipPath><clipPath id="bb2c8020cb"><path d="M 12.941406 47.523438 L 72 47.523438 L 72 114.769531 L 12.941406 114.769531 Z M 12.941406 47.523438 " clip-rule="nonzero"/></clipPath><clipPath id="350dca27d5"><path d="M 26 16.703125 L 86 16.703125 L 86 85 L 26 85 Z M 26 16.703125 " clip-rule="nonzero"/></clipPath></defs><g clip-path="url(#1bc4e09667)"><path fill="#367299" d="M 98.066406 65.425781 C 98.066406 56.996094 95.21875 49.234375 90.429688 43.046875 C 92.519531 46.363281 94.054688 50.105469 94.878906 54.175781 C 98.316406 71.070312 88.359375 87.574219 72.296875 92.6875 C 85.832031 86.238281 93.777344 71.203125 90.65625 55.847656 C 90.425781 54.726562 90.144531 53.632812 89.8125 52.5625 C 89.96875 53.921875 90.046875 55.308594 90.046875 56.707031 C 90.046875 76.929688 73.652344 93.324219 53.433594 93.324219 C 44.914062 93.324219 37.070312 90.414062 30.851562 85.53125 C 37.398438 95.476562 48.65625 102.039062 61.453125 102.039062 C 81.671875 102.039062 98.066406 85.648438 98.066406 65.425781 " fill-opacity="1" fill-rule="nonzero"/></g><g clip-path="url(#bb2c8020cb)"><path fill="#51ade5" d="M 49.589844 114.769531 C 58.019531 114.769531 65.78125 111.921875 71.96875 107.136719 C 68.652344 109.222656 64.910156 110.757812 60.839844 111.585938 C 43.945312 115.019531 27.441406 105.0625 22.328125 89 C 28.777344 102.535156 43.8125 110.480469 59.171875 107.359375 C 60.289062 107.128906 61.386719 106.847656 62.453125 106.515625 C 61.09375 106.671875 59.710938 106.75 58.308594 106.75 C 38.085938 106.75 21.691406 90.359375 21.691406 70.136719 C 21.691406 61.617188 24.605469 53.777344 29.484375 47.554688 C 19.539062 54.101562 12.976562 65.363281 12.976562 78.15625 C 12.976562 98.378906 29.367188 114.769531 49.589844 114.769531 " fill-opacity="1" fill-rule="nonzero"/></g><path fill="#367299" d="M 0.246094 66.292969 C 0.246094 74.722656 3.09375 82.484375 7.882812 88.675781 C 5.792969 85.355469 4.257812 81.613281 3.429688 77.542969 C -0.00390625 60.652344 9.953125 44.144531 26.015625 39.03125 C 12.480469 45.480469 4.535156 60.515625 7.65625 75.875 C 7.886719 76.992188 8.167969 78.089844 8.5 79.15625 C 8.34375 77.796875 8.265625 76.414062 8.265625 75.011719 C 8.265625 54.789062 24.660156 38.398438 44.878906 38.398438 C 53.398438 38.398438 61.242188 41.308594 67.460938 46.1875 C 60.914062 36.246094 49.65625 29.679688 36.859375 29.679688 C 16.636719 29.679688 0.246094 46.070312 0.246094 66.292969 " fill-opacity="1" fill-rule="nonzero"/><g clip-path="url(#350dca27d5)"><path fill="#51ade5" d="M 48.722656 16.949219 C 40.292969 16.949219 32.53125 19.796875 26.339844 24.585938 C 29.660156 22.5 33.402344 20.960938 37.472656 20.136719 C 54.367188 16.699219 70.871094 26.65625 75.984375 42.71875 C 69.535156 29.183594 54.5 21.238281 39.140625 24.363281 C 38.023438 24.589844 36.925781 24.871094 35.859375 25.203125 C 37.21875 25.046875 38.601562 24.96875 40.003906 24.96875 C 60.226562 24.96875 76.617188 41.363281 76.617188 61.582031 C 76.617188 70.101562 73.707031 77.945312 68.828125 84.164062 C 78.769531 77.617188 85.335938 66.359375 85.335938 53.5625 C 85.335938 33.34375 68.945312 16.949219 48.722656 16.949219 " fill-opacity="1" fill-rule="nonzero"/></g><g fill="#367299" fill-opacity="1"><g transform="translate(99.53624, 85.327473)"><g><path d="M 18.421875 0.40625 C 15.429688 0.40625 12.75 -0.078125 10.375 -1.046875 C 8.007812 -2.015625 6.113281 -3.453125 4.6875 -5.359375 C 3.269531 -7.265625 2.523438 -9.5625 2.453125 -12.25 L 13.0625 -12.25 C 13.21875 -10.726562 13.738281 -9.566406 14.625 -8.765625 C 15.519531 -7.972656 16.6875 -7.578125 18.125 -7.578125 C 19.601562 -7.578125 20.769531 -7.914062 21.625 -8.59375 C 22.476562 -9.28125 22.90625 -10.222656 22.90625 -11.421875 C 22.90625 -12.429688 22.566406 -13.265625 21.890625 -13.921875 C 21.210938 -14.585938 20.375 -15.132812 19.375 -15.5625 C 18.382812 -15.988281 16.976562 -16.472656 15.15625 -17.015625 C 12.507812 -17.835938 10.347656 -18.65625 8.671875 -19.46875 C 7.003906 -20.289062 5.566406 -21.492188 4.359375 -23.078125 C 3.160156 -24.671875 2.5625 -26.753906 2.5625 -29.328125 C 2.5625 -33.128906 3.941406 -36.109375 6.703125 -38.265625 C 9.460938 -40.421875 13.054688 -41.5 17.484375 -41.5 C 21.992188 -41.5 25.628906 -40.421875 28.390625 -38.265625 C 31.148438 -36.109375 32.628906 -33.109375 32.828125 -29.265625 L 22.03125 -29.265625 C 21.957031 -30.585938 21.472656 -31.625 20.578125 -32.375 C 19.679688 -33.132812 18.535156 -33.515625 17.140625 -33.515625 C 15.929688 -33.515625 14.957031 -33.191406 14.21875 -32.546875 C 13.476562 -31.910156 13.109375 -30.992188 13.109375 -29.796875 C 13.109375 -28.472656 13.726562 -27.441406 14.96875 -26.703125 C 16.21875 -25.960938 18.164062 -25.164062 20.8125 -24.3125 C 23.457031 -23.414062 25.601562 -22.554688 27.25 -21.734375 C 28.90625 -20.921875 30.332031 -19.738281 31.53125 -18.1875 C 32.738281 -16.632812 33.34375 -14.632812 33.34375 -12.1875 C 33.34375 -9.851562 32.75 -7.734375 31.5625 -5.828125 C 30.382812 -3.921875 28.664062 -2.40625 26.40625 -1.28125 C 24.15625 -0.15625 21.492188 0.40625 18.421875 0.40625 Z M 18.421875 0.40625 "/></g></g></g><g fill="#367299" fill-opacity="1"><g transform="translate(138.304419, 85.327473)"><g><path d="M 13.578125 -32.9375 L 13.578125 -24.65625 L 26.9375 -24.65625 L 26.9375 -16.96875 L 13.578125 -16.96875 L 13.578125 -7.984375 L 28.6875 -7.984375 L 28.6875 0 L 3.609375 0 L 3.609375 -40.921875 L 28.6875 -40.921875 L 28.6875 -32.9375 Z M 13.578125 -32.9375 "/></g></g></g><g fill="#367299" fill-opacity="1"><g transform="translate(172.758546, 85.327473)"><g><path d="M 29.09375 -7.234375 L 13.8125 -7.234375 L 11.375 0 L 0.9375 0 L 15.734375 -40.921875 L 27.28125 -40.921875 L 42.09375 0 L 31.53125 0 Z M 26.53125 -14.921875 L 21.453125 -29.90625 L 16.4375 -14.921875 Z M 26.53125 -14.921875 "/></g></g></g><g fill="#367299" fill-opacity="1"><g transform="translate(218.639081, 85.327473)"><g><path d="M 40.21875 0 L 30.25 0 L 13.578125 -25.25 L 13.578125 0 L 3.609375 0 L 3.609375 -40.921875 L 13.578125 -40.921875 L 30.25 -15.5625 L 30.25 -40.921875 L 40.21875 -40.921875 Z M 40.21875 0 "/></g></g></g><g fill="#367299" fill-opacity="1"><g transform="translate(265.394072, 85.327473)"><g><path d="M 13.578125 -32.9375 L 13.578125 -24.65625 L 26.9375 -24.65625 L 26.9375 -16.96875 L 13.578125 -16.96875 L 13.578125 -7.984375 L 28.6875 -7.984375 L 28.6875 0 L 3.609375 0 L 3.609375 -40.921875 L 28.6875 -40.921875 L 28.6875 -32.9375 Z M 13.578125 -32.9375 "/></g></g></g><g fill="#367299" fill-opacity="1"><g transform="translate(299.848195, 85.327473)"><g><path d="M 18.421875 0.40625 C 15.429688 0.40625 12.75 -0.078125 10.375 -1.046875 C 8.007812 -2.015625 6.113281 -3.453125 4.6875 -5.359375 C 3.269531 -7.265625 2.523438 -9.5625 2.453125 -12.25 L 13.0625 -12.25 C 13.21875 -10.726562 13.738281 -9.566406 14.625 -8.765625 C 15.519531 -7.972656 16.6875 -7.578125 18.125 -7.578125 C 19.601562 -7.578125 20.769531 -7.914062 21.625 -8.59375 C 22.476562 -9.28125 22.90625 -10.222656 22.90625 -11.421875 C 22.90625 -12.429688 22.566406 -13.265625 21.890625 -13.921875 C 21.210938 -14.585938 20.375 -15.132812 19.375 -15.5625 C 18.382812 -15.988281 16.976562 -16.472656 15.15625 -17.015625 C 12.507812 -17.835938 10.347656 -18.65625 8.671875 -19.46875 C 7.003906 -20.289062 5.566406 -21.492188 4.359375 -23.078125 C 3.160156 -24.671875 2.5625 -26.753906 2.5625 -29.328125 C 2.5625 -33.128906 3.941406 -36.109375 6.703125 -38.265625 C 9.460938 -40.421875 13.054688 -41.5 17.484375 -41.5 C 21.992188 -41.5 25.628906 -40.421875 28.390625 -38.265625 C 31.148438 -36.109375 32.628906 -33.109375 32.828125 -29.265625 L 22.03125 -29.265625 C 21.957031 -30.585938 21.472656 -31.625 20.578125 -32.375 C 19.679688 -33.132812 18.535156 -33.515625 17.140625 -33.515625 C 15.929688 -33.515625 14.957031 -33.191406 14.21875 -32.546875 C 13.476562 -31.910156 13.109375 -30.992188 13.109375 -29.796875 C 13.109375 -28.472656 13.726562 -27.441406 14.96875 -26.703125 C 16.21875 -25.960938 18.164062 -25.164062 20.8125 -24.3125 C 23.457031 -23.414062 25.601562 -22.554688 27.25 -21.734375 C 28.90625 -20.921875 30.332031 -19.738281 31.53125 -18.1875 C 32.738281 -16.632812 33.34375 -14.632812 33.34375 -12.1875 C 33.34375 -9.851562 32.75 -7.734375 31.5625 -5.828125 C 30.382812 -3.921875 28.664062 -2.40625 26.40625 -1.28125 C 24.15625 -0.15625 21.492188 0.40625 18.421875 0.40625 Z M 18.421875 0.40625 "/></g></g></g><g fill="#367299" fill-opacity="1"><g transform="translate(338.616384, 85.327473)"><g><path d="M 33.046875 -40.921875 L 33.046875 -32.9375 L 22.21875 -32.9375 L 22.21875 0 L 12.25 0 L 12.25 -32.9375 L 1.40625 -32.9375 L 1.40625 -40.921875 Z M 33.046875 -40.921875 "/></g></g></g></svg>