<svg xmlns="http://www.w3.org/2000/svg" xmlns:xlink="http://www.w3.org/1999/xlink" width="536" zoomAndPan="magnify" viewBox="0 0 402 123.000003" height="164" preserveAspectRatio="xMidYMid meet" version="1.0"><defs><g/><clipPath id="b79351531d"><path d="M 32.230469 40.539062 L 99.015625 40.539062 L 99.015625 99.234375 L 32.230469 99.234375 Z M 32.230469 40.539062 " clip-rule="nonzero"/></clipPath><clipPath id="4ff1d324b4"><path d="M 14.472656 45.011719 L 73.167969 45.011719 L 73.167969 111.796875 L 14.472656 111.796875 Z M 14.472656 45.011719 " clip-rule="nonzero"/></clipPath><clipPath id="901bb92e9d"><path d="M 1.621094 27 L 69 27 L 69 86 L 1.621094 86 Z M 1.621094 27 " clip-rule="nonzero"/></clipPath><clipPath id="bf0a6b1d37"><path d="M 27 14.402344 L 87 14.402344 L 87 82 L 27 82 Z M 27 14.402344 " clip-rule="nonzero"/></clipPath></defs><g clip-path="url(#b79351531d)"><path fill="#367299" d="M 99.015625 62.792969 C 99.015625 54.417969 96.1875 46.710938 91.433594 40.5625 C 93.503906 43.859375 95.03125 47.578125 95.851562 51.617188 C 99.265625 68.394531 89.375 84.789062 73.421875 89.867188 C 86.867188 83.460938 94.757812 68.527344 91.65625 53.277344 C 91.429688 52.164062 91.148438 51.078125 90.820312 50.015625 C 90.972656 51.367188 91.050781 52.742188 91.050781 54.132812 C 91.050781 74.214844 74.769531 90.496094 54.6875 90.496094 C 46.226562 90.496094 38.4375 87.605469 32.261719 82.757812 C 38.761719 92.632812 49.945312 99.152344 62.652344 99.152344 C 82.734375 99.152344 99.015625 82.875 99.015625 62.792969 " fill-opacity="1" fill-rule="nonzero"/></g><g clip-path="url(#4ff1d324b4)"><path fill="#51ade5" d="M 50.871094 111.796875 C 59.242188 111.796875 66.953125 108.96875 73.097656 104.214844 C 69.804688 106.285156 66.085938 107.8125 62.042969 108.632812 C 45.265625 112.046875 28.875 102.15625 23.796875 86.203125 C 30.203125 99.648438 45.132812 107.539062 60.386719 104.4375 C 61.5 104.210938 62.585938 103.929688 63.648438 103.601562 C 62.296875 103.753906 60.921875 103.832031 59.527344 103.832031 C 39.445312 103.832031 23.164062 87.550781 23.164062 67.46875 C 23.164062 59.007812 26.054688 51.21875 30.902344 45.042969 C 21.027344 51.542969 14.507812 62.726562 14.507812 75.433594 C 14.507812 95.515625 30.789062 111.796875 50.871094 111.796875 " fill-opacity="1" fill-rule="nonzero"/></g><g clip-path="url(#901bb92e9d)"><path fill="#367299" d="M 1.863281 63.652344 C 1.863281 72.023438 4.695312 79.734375 9.449219 85.878906 C 7.375 82.582031 5.851562 78.867188 5.027344 74.824219 C 1.617188 58.046875 11.507812 41.65625 27.457031 36.578125 C 14.015625 42.984375 6.125 57.914062 9.226562 73.167969 C 9.453125 74.28125 9.730469 75.367188 10.0625 76.429688 C 9.910156 75.078125 9.832031 73.703125 9.832031 72.308594 C 9.832031 52.226562 26.109375 35.945312 46.195312 35.945312 C 54.65625 35.945312 62.441406 38.839844 68.621094 43.683594 C 62.117188 33.808594 50.9375 27.289062 38.226562 27.289062 C 18.144531 27.289062 1.863281 43.570312 1.863281 63.652344 " fill-opacity="1" fill-rule="nonzero"/></g><g clip-path="url(#bf0a6b1d37)"><path fill="#51ade5" d="M 50.011719 14.644531 C 41.636719 14.644531 33.929688 17.476562 27.78125 22.230469 C 31.078125 20.15625 34.796875 18.632812 38.835938 17.808594 C 55.613281 14.398438 72.007812 24.289062 77.085938 40.238281 C 70.679688 26.796875 55.746094 18.90625 40.496094 22.007812 C 39.382812 22.234375 38.296875 22.511719 37.234375 22.84375 C 38.585938 22.691406 39.960938 22.613281 41.351562 22.613281 C 61.433594 22.613281 77.714844 38.890625 77.714844 58.972656 C 77.714844 67.4375 74.824219 75.222656 69.976562 81.402344 C 79.851562 74.898438 86.375 63.71875 86.375 51.007812 C 86.375 30.925781 70.09375 14.644531 50.011719 14.644531 " fill-opacity="1" fill-rule="nonzero"/></g><g fill="#367299" fill-opacity="1"><g transform="translate(102.731322, 79.040792)"><g><path d="M 17.046875 0.375 C 14.273438 0.375 11.789062 -0.0703125 9.59375 -0.96875 C 7.40625 -1.863281 5.65625 -3.191406 4.34375 -4.953125 C 3.03125 -6.722656 2.335938 -8.847656 2.265625 -11.328125 L 12.078125 -11.328125 C 12.222656 -9.921875 12.707031 -8.847656 13.53125 -8.109375 C 14.363281 -7.378906 15.441406 -7.015625 16.765625 -7.015625 C 18.128906 -7.015625 19.207031 -7.328125 20 -7.953125 C 20.789062 -8.578125 21.1875 -9.445312 21.1875 -10.5625 C 21.1875 -11.5 20.867188 -12.269531 20.234375 -12.875 C 19.609375 -13.488281 18.835938 -13.992188 17.921875 -14.390625 C 17.003906 -14.785156 15.703125 -15.238281 14.015625 -15.75 C 11.578125 -16.5 9.582031 -17.25 8.03125 -18 C 6.488281 -18.757812 5.160156 -19.875 4.046875 -21.34375 C 2.929688 -22.820312 2.375 -24.75 2.375 -27.125 C 2.375 -30.644531 3.648438 -33.398438 6.203125 -35.390625 C 8.753906 -37.390625 12.078125 -38.390625 16.171875 -38.390625 C 20.347656 -38.390625 23.710938 -37.390625 26.265625 -35.390625 C 28.816406 -33.398438 30.179688 -30.625 30.359375 -27.0625 L 20.375 -27.0625 C 20.3125 -28.289062 19.863281 -29.253906 19.03125 -29.953125 C 18.207031 -30.648438 17.148438 -31 15.859375 -31 C 14.742188 -31 13.84375 -30.703125 13.15625 -30.109375 C 12.46875 -29.515625 12.125 -28.660156 12.125 -27.546875 C 12.125 -26.328125 12.695312 -25.375 13.84375 -24.6875 C 15 -24.007812 16.800781 -23.273438 19.25 -22.484375 C 21.695312 -21.660156 23.679688 -20.867188 25.203125 -20.109375 C 26.734375 -19.359375 28.054688 -18.265625 29.171875 -16.828125 C 30.285156 -15.390625 30.84375 -13.535156 30.84375 -11.265625 C 30.84375 -9.109375 30.289062 -7.148438 29.1875 -5.390625 C 28.09375 -3.628906 26.503906 -2.226562 24.421875 -1.1875 C 22.335938 -0.144531 19.878906 0.375 17.046875 0.375 Z M 17.046875 0.375 "/></g></g></g><g fill="#367299" fill-opacity="1"><g transform="translate(138.591734, 79.040792)"><g><path d="M 12.5625 -30.46875 L 12.5625 -22.8125 L 24.90625 -22.8125 L 24.90625 -15.6875 L 12.5625 -15.6875 L 12.5625 -7.390625 L 26.53125 -7.390625 L 26.53125 0 L 3.34375 0 L 3.34375 -37.859375 L 26.53125 -37.859375 L 26.53125 -30.46875 Z M 12.5625 -30.46875 "/></g></g></g><g fill="#367299" fill-opacity="1"><g transform="translate(170.461704, 79.040792)"><g><path d="M 26.90625 -6.6875 L 12.78125 -6.6875 L 10.515625 0 L 0.859375 0 L 14.5625 -37.859375 L 25.234375 -37.859375 L 38.9375 0 L 29.171875 0 Z M 24.53125 -13.796875 L 19.84375 -27.65625 L 15.203125 -13.796875 Z M 24.53125 -13.796875 "/></g></g></g><g fill="#367299" fill-opacity="1"><g transform="translate(212.900955, 79.040792)"><g/></g></g><g fill="#367299" fill-opacity="1"><g transform="translate(227.029611, 79.040792)"><g><path d="M 37.203125 0 L 27.984375 0 L 12.5625 -23.34375 L 12.5625 0 L 3.34375 0 L 3.34375 -37.859375 L 12.5625 -37.859375 L 27.984375 -14.390625 L 27.984375 -37.859375 L 37.203125 -37.859375 Z M 37.203125 0 "/></g></g></g><g fill="#367299" fill-opacity="1"><g transform="translate(270.277746, 79.040792)"><g><path d="M 12.5625 -30.46875 L 12.5625 -22.8125 L 24.90625 -22.8125 L 24.90625 -15.6875 L 12.5625 -15.6875 L 12.5625 -7.390625 L 26.53125 -7.390625 L 26.53125 0 L 3.34375 0 L 3.34375 -37.859375 L 26.53125 -37.859375 L 26.53125 -30.46875 Z M 12.5625 -30.46875 "/></g></g></g><g fill="#367299" fill-opacity="1"><g transform="translate(302.147722, 79.040792)"><g><path d="M 17.046875 0.375 C 14.273438 0.375 11.789062 -0.0703125 9.59375 -0.96875 C 7.40625 -1.863281 5.65625 -3.191406 4.34375 -4.953125 C 3.03125 -6.722656 2.335938 -8.847656 2.265625 -11.328125 L 12.078125 -11.328125 C 12.222656 -9.921875 12.707031 -8.847656 13.53125 -8.109375 C 14.363281 -7.378906 15.441406 -7.015625 16.765625 -7.015625 C 18.128906 -7.015625 19.207031 -7.328125 20 -7.953125 C 20.789062 -8.578125 21.1875 -9.445312 21.1875 -10.5625 C 21.1875 -11.5 20.867188 -12.269531 20.234375 -12.875 C 19.609375 -13.488281 18.835938 -13.992188 17.921875 -14.390625 C 17.003906 -14.785156 15.703125 -15.238281 14.015625 -15.75 C 11.578125 -16.5 9.582031 -17.25 8.03125 -18 C 6.488281 -18.757812 5.160156 -19.875 4.046875 -21.34375 C 2.929688 -22.820312 2.375 -24.75 2.375 -27.125 C 2.375 -30.644531 3.648438 -33.398438 6.203125 -35.390625 C 8.753906 -37.390625 12.078125 -38.390625 16.171875 -38.390625 C 20.347656 -38.390625 23.710938 -37.390625 26.265625 -35.390625 C 28.816406 -33.398438 30.179688 -30.625 30.359375 -27.0625 L 20.375 -27.0625 C 20.3125 -28.289062 19.863281 -29.253906 19.03125 -29.953125 C 18.207031 -30.648438 17.148438 -31 15.859375 -31 C 14.742188 -31 13.84375 -30.703125 13.15625 -30.109375 C 12.46875 -29.515625 12.125 -28.660156 12.125 -27.546875 C 12.125 -26.328125 12.695312 -25.375 13.84375 -24.6875 C 15 -24.007812 16.800781 -23.273438 19.25 -22.484375 C 21.695312 -21.660156 23.679688 -20.867188 25.203125 -20.109375 C 26.734375 -19.359375 28.054688 -18.265625 29.171875 -16.828125 C 30.285156 -15.390625 30.84375 -13.535156 30.84375 -11.265625 C 30.84375 -9.109375 30.289062 -7.148438 29.1875 -5.390625 C 28.09375 -3.628906 26.503906 -2.226562 24.421875 -1.1875 C 22.335938 -0.144531 19.878906 0.375 17.046875 0.375 Z M 17.046875 0.375 "/></g></g></g><g fill="#367299" fill-opacity="1"><g transform="translate(338.008128, 79.040792)"><g><path d="M 30.578125 -37.859375 L 30.578125 -30.46875 L 20.546875 -30.46875 L 20.546875 0 L 11.328125 0 L 11.328125 -30.46875 L 1.296875 -30.46875 L 1.296875 -37.859375 Z M 30.578125 -37.859375 "/></g></g></g></svg>