<svg xmlns="http://www.w3.org/2000/svg" xmlns:xlink="http://www.w3.org/1999/xlink" width="500" zoomAndPan="magnify" viewBox="0 0 375 374.999991" height="500" preserveAspectRatio="xMidYMid meet" version="1.0"><defs><g/><clipPath id="9e38297685"><path d="M 142.816406 161.480469 L 307.765625 161.480469 L 307.765625 306.453125 L 142.816406 306.453125 Z M 142.816406 161.480469 " clip-rule="nonzero"/></clipPath><clipPath id="37c64f14be"><path d="M 99 172.527344 L 243.929688 172.527344 L 243.929688 337.480469 L 99 337.480469 Z M 99 172.527344 " clip-rule="nonzero"/></clipPath><clipPath id="0c383e70e2"><path d="M 67.214844 128 L 233 128 L 233 274 L 67.214844 274 Z M 67.214844 128 " clip-rule="nonzero"/></clipPath></defs><g clip-path="url(#9e38297685)"><path fill="#367299" d="M 307.765625 216.441406 C 307.765625 195.765625 300.777344 176.722656 289.035156 161.542969 C 294.15625 169.683594 297.921875 178.867188 299.953125 188.84375 C 308.378906 230.285156 283.953125 270.773438 244.554688 283.3125 C 277.757812 267.492188 297.246094 230.609375 289.585938 192.941406 C 289.027344 190.195312 288.335938 187.507812 287.523438 184.886719 C 287.898438 188.226562 288.09375 191.621094 288.09375 195.058594 C 288.09375 244.660156 247.882812 284.871094 198.28125 284.871094 C 177.382812 284.871094 158.148438 277.730469 142.890625 265.757812 C 158.945312 290.148438 186.566406 306.253906 217.957031 306.253906 C 267.554688 306.253906 307.765625 266.042969 307.765625 216.441406 " fill-opacity="1" fill-rule="nonzero"/></g><g clip-path="url(#37c64f14be)"><path fill="#51ade5" d="M 188.855469 337.480469 C 209.53125 337.480469 228.574219 330.492188 243.753906 318.75 C 235.613281 323.867188 226.429688 327.636719 216.449219 329.667969 C 175.011719 338.09375 134.527344 313.667969 121.984375 274.269531 C 137.804688 307.472656 174.6875 326.960938 212.355469 319.300781 C 215.101562 318.742188 217.789062 318.050781 220.410156 317.238281 C 217.070312 317.613281 213.675781 317.808594 210.238281 317.808594 C 160.636719 317.808594 120.425781 277.597656 120.425781 227.996094 C 120.425781 207.097656 127.566406 187.863281 139.539062 172.605469 C 115.148438 188.664062 99.042969 216.285156 99.042969 247.667969 C 99.042969 297.269531 139.253906 337.480469 188.855469 337.480469 " fill-opacity="1" fill-rule="nonzero"/></g><g clip-path="url(#0c383e70e2)"><path fill="#367299" d="M 67.816406 218.570312 C 67.816406 239.246094 74.804688 258.289062 86.546875 273.46875 C 81.425781 265.328125 77.660156 256.148438 75.632812 246.167969 C 67.203125 204.726562 91.628906 164.238281 131.03125 151.699219 C 97.824219 167.519531 78.335938 204.402344 85.996094 242.070312 C 86.554688 244.816406 87.246094 247.503906 88.0625 250.125 C 87.683594 246.785156 87.488281 243.394531 87.488281 239.953125 C 87.488281 190.351562 127.699219 150.140625 177.300781 150.140625 C 198.203125 150.140625 217.433594 157.28125 232.691406 169.253906 C 216.636719 144.863281 189.015625 128.757812 157.628906 128.757812 C 108.027344 128.757812 67.816406 168.96875 67.816406 218.570312 " fill-opacity="1" fill-rule="nonzero"/></g><path fill="#51ade5" d="M 186.726562 97.53125 C 166.050781 97.53125 147.007812 104.519531 131.828125 116.261719 C 139.96875 111.144531 149.152344 107.375 159.132812 105.34375 C 200.570312 96.917969 241.058594 121.34375 253.597656 160.742188 C 237.777344 127.539062 200.898438 108.050781 163.226562 115.710938 C 160.480469 116.269531 157.792969 116.960938 155.171875 117.773438 C 158.511719 117.398438 161.90625 117.203125 165.34375 117.203125 C 214.945312 117.203125 255.15625 157.414062 255.15625 207.015625 C 255.15625 227.914062 248.015625 247.148438 236.042969 262.40625 C 260.4375 246.351562 276.539062 218.730469 276.539062 187.34375 C 276.539062 137.742188 236.328125 97.53125 186.726562 97.53125 " fill-opacity="1" fill-rule="nonzero"/><g fill="#367299" fill-opacity="1"><g transform="translate(55.783878, 162.938564)"><g><path d="M 15.53125 -18.734375 C 13.082031 -15.640625 10.378906 -13.257812 7.421875 -11.59375 C 4.472656 -9.9375 1.429688 -9.15625 -1.703125 -9.25 C -4.835938 -9.351562 -7.820312 -10.460938 -10.65625 -12.578125 L -1.953125 -23.5625 C -0.253906 -22.476562 1.367188 -22.070312 2.921875 -22.34375 C 4.484375 -22.613281 5.851562 -23.488281 7.03125 -24.96875 C 8.25 -26.507812 8.851562 -28 8.84375 -29.4375 C 8.84375 -30.875 8.21875 -32.085938 6.96875 -33.078125 C 5.925781 -33.910156 4.785156 -34.242188 3.546875 -34.078125 C 2.304688 -33.921875 1.0625 -33.503906 -0.1875 -32.828125 C -1.445312 -32.148438 -3.109375 -31.09375 -5.171875 -29.65625 C -8.179688 -27.582031 -10.796875 -26.015625 -13.015625 -24.953125 C -15.234375 -23.898438 -17.660156 -23.40625 -20.296875 -23.46875 C -22.929688 -23.53125 -25.578125 -24.613281 -28.234375 -26.71875 C -32.171875 -29.84375 -34.125 -33.71875 -34.09375 -38.34375 C -34.070312 -42.96875 -32.242188 -47.570312 -28.609375 -52.15625 C -24.898438 -56.820312 -20.796875 -59.695312 -16.296875 -60.78125 C -11.804688 -61.863281 -7.488281 -60.925781 -3.34375 -57.96875 L -12.203125 -46.8125 C -13.628906 -47.820312 -15.101562 -48.171875 -16.625 -47.859375 C -18.144531 -47.554688 -19.476562 -46.679688 -20.625 -45.234375 C -21.613281 -43.984375 -22.078125 -42.710938 -22.015625 -41.421875 C -21.953125 -40.140625 -21.300781 -39.007812 -20.0625 -38.03125 C -18.6875 -36.9375 -17.109375 -36.726562 -15.328125 -37.40625 C -13.546875 -38.09375 -11.128906 -39.453125 -8.078125 -41.484375 C -4.984375 -43.484375 -2.335938 -45 -0.140625 -46.03125 C 2.054688 -47.070312 4.453125 -47.578125 7.046875 -47.546875 C 9.648438 -47.523438 12.21875 -46.507812 14.75 -44.5 C 17.164062 -42.582031 18.875 -40.226562 19.875 -37.4375 C 20.875 -34.65625 21.03125 -31.632812 20.34375 -28.375 C 19.65625 -25.125 18.050781 -21.910156 15.53125 -18.734375 Z M 15.53125 -18.734375 "/></g></g></g><g fill="#367299" fill-opacity="1"><g transform="translate(83.495302, 128.00532)"><g><path d="M -10.8125 -45.796875 L -4.4375 -36.921875 L 9.875 -47.203125 L 15.796875 -38.953125 L 1.484375 -28.671875 L 8.40625 -19.03125 L 24.609375 -30.65625 L 30.765625 -22.09375 L 3.875 -2.78125 L -27.65625 -46.671875 L -0.765625 -65.984375 L 5.390625 -57.421875 Z M -10.8125 -45.796875 "/></g></g></g><g fill="#367299" fill-opacity="1"><g transform="translate(113.861542, 104.184289)"><g><path d="M 33.5 -21.09375 L 14.34375 -14.78125 L 14.265625 -4.703125 L 1.171875 -0.390625 L 2.796875 -57.84375 L 17.28125 -62.609375 L 52.78125 -17.40625 L 39.5625 -13.046875 Z M 27.09375 -29.6875 L 14.53125 -46.390625 L 14.4375 -25.515625 Z M 27.09375 -29.6875 "/></g></g></g><g fill="#367299" fill-opacity="1"><g transform="translate(163.535418, 86.913284)"><g><path d="M 53.09375 1.71875 L 39.9375 1.28125 L 19 -32.734375 L 17.921875 0.578125 L 4.765625 0.15625 L 6.5 -53.859375 L 19.65625 -53.4375 L 40.59375 -19.265625 L 41.671875 -52.734375 L 54.828125 -52.296875 Z M 53.09375 1.71875 "/></g></g></g><g fill="#367299" fill-opacity="1"><g transform="translate(217.857117, 89.379344)"><g><path d="M 31.40625 -35.03125 L 27.765625 -24.71875 L 44.390625 -18.84375 L 41 -9.265625 L 24.375 -15.140625 L 20.421875 -3.953125 L 39.21875 2.6875 L 35.703125 12.625 L 4.5 1.59375 L 22.515625 -49.359375 L 53.71875 -38.328125 L 50.203125 -28.390625 Z M 31.40625 -35.03125 "/></g></g></g><g fill="#367299" fill-opacity="1"><g transform="translate(254.882727, 101.650994)"><g><path d="M 19.53125 14.515625 C 16.3125 12.234375 13.796875 9.660156 11.984375 6.796875 C 10.171875 3.929688 9.226562 0.9375 9.15625 -2.1875 C 9.082031 -5.320312 10.03125 -8.363281 12 -11.3125 L 23.421875 -3.203125 C 22.429688 -1.453125 22.113281 0.1875 22.46875 1.71875 C 22.820312 3.257812 23.769531 4.582031 25.3125 5.6875 C 26.914062 6.8125 28.4375 7.332031 29.875 7.25 C 31.3125 7.175781 32.488281 6.488281 33.40625 5.1875 C 34.175781 4.101562 34.445312 2.945312 34.21875 1.71875 C 34 0.5 33.519531 -0.71875 32.78125 -1.9375 C 32.039062 -3.15625 30.894531 -4.757812 29.34375 -6.75 C 27.101562 -9.644531 25.394531 -12.171875 24.21875 -14.328125 C 23.050781 -16.484375 22.425781 -18.878906 22.34375 -21.515625 C 22.269531 -24.148438 23.210938 -26.847656 25.171875 -29.609375 C 28.085938 -33.710938 31.851562 -35.875 36.46875 -36.09375 C 41.082031 -36.3125 45.773438 -34.726562 50.546875 -31.34375 C 55.410156 -27.894531 58.503906 -23.953125 59.828125 -19.515625 C 61.148438 -15.085938 60.441406 -10.726562 57.703125 -6.4375 L 46.078125 -14.671875 C 47.015625 -16.160156 47.289062 -17.648438 46.90625 -19.140625 C 46.53125 -20.640625 45.59375 -21.921875 44.09375 -22.984375 C 42.789062 -23.910156 41.492188 -24.304688 40.203125 -24.171875 C 38.910156 -24.046875 37.804688 -23.335938 36.890625 -22.046875 C 35.878906 -20.617188 35.757812 -19.035156 36.53125 -17.296875 C 37.3125 -15.554688 38.796875 -13.21875 40.984375 -10.28125 C 43.148438 -7.289062 44.8125 -4.722656 45.96875 -2.578125 C 47.125 -0.441406 47.753906 1.921875 47.859375 4.515625 C 47.972656 7.109375 47.09375 9.722656 45.21875 12.359375 C 43.4375 14.867188 41.175781 16.695312 38.4375 17.84375 C 35.707031 18.988281 32.695312 19.304688 29.40625 18.796875 C 26.125 18.285156 22.832031 16.859375 19.53125 14.515625 Z M 19.53125 14.515625 "/></g></g></g><g fill="#367299" fill-opacity="1"><g transform="translate(291.253391, 127.105683)"><g><path d="M 69.46875 0.984375 L 61.15625 7.5 L 52.3125 -3.765625 L 18.09375 23.078125 L 9.984375 12.71875 L 44.203125 -14.125 L 35.359375 -25.390625 L 43.671875 -31.90625 Z M 69.46875 0.984375 "/></g></g></g></svg>